<?xml version="1.0" encoding="utf-8"?>
<!-- Generator: Adobe Illustrator 26.3.1, SVG Export Plug-In . SVG Version: 6.00 Build 0)  -->
<svg version="1.1" id="Warstwa_1" xmlns="http://www.w3.org/2000/svg" xmlns:xlink="http://www.w3.org/1999/xlink" x="0px" y="0px"
	 viewBox="0 0 2166.7 1145.9" style="enable-background:new 0 0 2166.7 1145.9;" xml:space="preserve">
<style type="text/css">
	.st0{fill:none;}
	.st1{fill:url(#SVGID_1_);}
	.st2{fill:#FF0000;}
	.st3{fill:url(#SVGID_00000032640868272715076480000017524913676677843631_);}
	.st4{fill:url(#SVGID_00000037673106615070416060000003148585287006675330_);}
	.st5{fill:url(#SVGID_00000079483078474458845290000003951250000955686576_);}
	.st6{fill:url(#SVGID_00000096746869556250517370000004204935206258958518_);}
	.st7{fill:url(#SVGID_00000034768988157966583890000009708357564883028903_);}
	.st8{fill:url(#SVGID_00000053539326261066573780000005198221573591114936_);}
	.st9{fill:url(#SVGID_00000012432437794649977420000006303237995795327905_);}
	.st10{fill:url(#SVGID_00000183210789404096517400000016614154755825676676_);}
	.st11{fill:url(#SVGID_00000135678576292625558990000006243586669378485893_);}
	.st12{fill:url(#SVGID_00000068652540340695208680000002606147331849805187_);}
	.st13{fill:url(#SVGID_00000103966996671349259300000002510341600905801396_);}
	.st14{fill:url(#SVGID_00000072274784669863249650000014569167692790996373_);}
	.st15{fill:url(#SVGID_00000011029736992703122240000001737925940708717753_);}
	.st16{fill:url(#SVGID_00000036967290117146793080000006750747854965151679_);}
	.st17{fill:url(#SVGID_00000104672979954621461780000003861223981471336080_);}
	.st18{fill:url(#SVGID_00000140735519838845869570000013077426784593615283_);}
	.st19{fill:url(#SVGID_00000086677782284698323830000017291951610600949942_);}
	.st20{fill:url(#SVGID_00000014629425225597107070000012327643868441960110_);}
	.st21{fill:url(#SVGID_00000166655788608757982220000009779699160519799977_);}
	.st22{fill:url(#SVGID_00000137117513674209860750000011090848265215953577_);}
	.st23{fill:url(#SVGID_00000143585421011601863910000007178764301512561551_);}
	.st24{fill:url(#SVGID_00000103978641797628800460000010439872244371673747_);}
	.st25{fill:url(#SVGID_00000155830228248151561740000015619020613113349300_);}
	.st26{fill:#E81010;}
	.st27{fill:#231F20;}
</style>
<polygon class="st0" points="1016.5,973.7 1016.8,973.5 1015.7,973 "/>
<g>
	<linearGradient id="SVGID_1_" gradientUnits="userSpaceOnUse" x1="1024.121" y1="460.234" x2="1024.121" y2="213.8852">
		<stop  offset="0" style="stop-color:#CC1517"/>
		<stop  offset="1" style="stop-color:#E61110"/>
	</linearGradient>
	<polygon class="st1" points="1425.1,361.6 1425.5,361.7 1341.2,213.9 707.7,213.9 567.1,460.2 593.5,460.2 720.7,236.3 
		1328.2,236.3 1455.6,460.2 1481.2,460.2 	"/>
	<g>
		<g>
			<path class="st2" d="M1514.6,354.5c0.2,0.1,0.3,0.1,0.5,0.2l-125.2-219.6H659.2L473.6,460.2h75.7l147.7-260.2h655.2l148.1,260.2
				h74.5L1514.6,354.5z"/>
			<path d="M1352.7,781.7h-103.2l-224.5,191.7L800.4,781.7H697.1L882.1,938l142.5,121.1l0.4-0.3l0.4,0.3l-0.3-0.4L1352.7,781.7z
				 M1024.5,973.7l-0.8-0.7l1.1,0.5L1024.5,973.7z"/>
		</g>
		<g>
			
				<linearGradient id="SVGID_00000037680629376944933560000001583163825183317672_" gradientUnits="userSpaceOnUse" x1="473.5679" y1="597.0851" x2="1574.6741" y2="597.0851">
				<stop  offset="0" style="stop-color:#302E2F"/>
				<stop  offset="1" style="stop-color:#000000"/>
			</linearGradient>
			<path style="fill:url(#SVGID_00000037680629376944933560000001583163825183317672_);" d="M1514.6,354.5c0.2,0.1,0.3,0.1,0.5,0.2
				l-125.2-219.6H659.2L473.6,460.2h75.7l147.7-260.2h655.2l148.1,260.2h74.5L1514.6,354.5z"/>
			
				<linearGradient id="SVGID_00000039813651749581353330000006880417275150656684_" gradientUnits="userSpaceOnUse" x1="473.5679" y1="597.0851" x2="1574.6741" y2="597.0851">
				<stop  offset="0" style="stop-color:#302E2F"/>
				<stop  offset="1" style="stop-color:#000000"/>
			</linearGradient>
			<path style="fill:url(#SVGID_00000039813651749581353330000006880417275150656684_);" d="M1352.7,781.7h-103.2l-224.5,191.7
				L800.4,781.7H697.1L882.1,938l142.5,121.1l0.4-0.3l0.4,0.3l-0.3-0.4L1352.7,781.7z M1024.5,973.7l-0.8-0.7l1.1,0.5L1024.5,973.7z
				"/>
		</g>
	</g>
	
		<linearGradient id="SVGID_00000001627701360933033550000001175055941360947868_" gradientUnits="userSpaceOnUse" x1="1024.121" y1="743.3294" x2="1024.121" y2="952.7659">
		<stop  offset="0" style="stop-color:#CC1517"/>
		<stop  offset="1" style="stop-color:#E61110"/>
	</linearGradient>
	<path style="fill:url(#SVGID_00000001627701360933033550000001175055941360947868_);" d="M1195.1,781.7l-149.6,127.7l0-62
		c20.3-8.5,34.6-28.6,34.6-52c0-23.4-14.3-43.5-34.6-52v64.6l-21.8,12.6l-21.8-12.6l0-64.6c-20.3,8.5-34.6,28.6-34.6,52
		c0,23.4,14.3,43.5,34.6,52v61.2L853.2,781.7H822l103.7,87.7l98.1,83.4l0.3-0.2l0,0l202.1-170.9H1195.1z"/>
</g>
<g>
	<g>
		<g>
			<g>
				<path d="M403.1,563c9.8,17.1,14.1,25.4,17.9,33.2c3.7-7.8,8-15.9,17.8-33.1l17.8-31.6c4-7.1,10-11.8,18.9-11.8
					c8.6,0,16.3,5,19.3,15.3l28.1,97.7h-34.2l-10.5-38.7c-3.5-12.6-5.8-21.6-7.6-30.6c-3.7,7.8-7.8,16.3-15.4,30.7l-14.9,27.9
					c-5.8,11-11.5,12.5-19.8,12.5s-14-1.5-19.8-12.5l-14.9-28.1c-8.1-15.3-12.1-23.1-15.6-30.6c-1.7,8.8-4.2,18.1-7.5,30.6
					l-10.5,38.7h-33.7l28.7-97.7c3-10.3,10.8-15.3,19.4-15.3c8.8,0,14.8,4.5,18.8,11.8L403.1,563z"/>
				<path d="M597.6,563.3h71.1v69.4h-76.2c-38.5,0-66.9-24.4-66.9-56.6c0-32.6,28.4-54.5,66.9-54.5H672l-22.3,28.9h-57.3
					c-18.6,0-32.7,11.3-32.7,27.1c0,16.1,13.6,26.6,32.7,26.6h42v-16.1H577L597.6,563.3z"/>
			</g>
			<g>
				
					<linearGradient id="SVGID_00000005226565846725883350000008930742206646138522_" gradientUnits="userSpaceOnUse" x1="495.1923" y1="634.5866" x2="495.1923" y2="519.8171">
					<stop  offset="0" style="stop-color:#302E2F"/>
					<stop  offset="1" style="stop-color:#000000"/>
				</linearGradient>
				<path style="fill:url(#SVGID_00000005226565846725883350000008930742206646138522_);" d="M403.1,563
					c9.8,17.1,14.1,25.4,17.9,33.2c3.7-7.8,8-15.9,17.8-33.1l17.8-31.6c4-7.1,10-11.8,18.9-11.8c8.6,0,16.3,5,19.3,15.3l28.1,97.7
					h-34.2l-10.5-38.7c-3.5-12.6-5.8-21.6-7.6-30.6c-3.7,7.8-7.8,16.3-15.4,30.7l-14.9,27.9c-5.8,11-11.5,12.5-19.8,12.5
					s-14-1.5-19.8-12.5l-14.9-28.1c-8.1-15.3-12.1-23.1-15.6-30.6c-1.7,8.8-4.2,18.1-7.5,30.6l-10.5,38.7h-33.7l28.7-97.7
					c3-10.3,10.8-15.3,19.4-15.3c8.8,0,14.8,4.5,18.8,11.8L403.1,563z"/>
				
					<linearGradient id="SVGID_00000054243245150186072620000009171020863324240286_" gradientUnits="userSpaceOnUse" x1="495.1923" y1="634.5866" x2="495.1923" y2="519.8171">
					<stop  offset="0" style="stop-color:#302E2F"/>
					<stop  offset="1" style="stop-color:#000000"/>
				</linearGradient>
				<path style="fill:url(#SVGID_00000054243245150186072620000009171020863324240286_);" d="M597.6,563.3h71.1v69.4h-76.2
					c-38.5,0-66.9-24.4-66.9-56.6c0-32.6,28.4-54.5,66.9-54.5H672l-22.3,28.9h-57.3c-18.6,0-32.7,11.3-32.7,27.1
					c0,16.1,13.6,26.6,32.7,26.6h42v-16.1H577L597.6,563.3z"/>
			</g>
		</g>
		<g>
			
				<linearGradient id="SVGID_00000169517806546532943460000009793617033776070588_" gradientUnits="userSpaceOnUse" x1="821.8177" y1="521.6442" x2="821.8177" y2="632.7595">
				<stop  offset="0" style="stop-color:#CC1517"/>
				<stop  offset="1" style="stop-color:#E61110"/>
			</linearGradient>
			<path style="fill:url(#SVGID_00000169517806546532943460000009793617033776070588_);" d="M820.7,563.3h71.1v69.4h-76.2
				c-38.5,0-66.9-24.4-66.9-56.6c0-32.6,28.4-54.5,66.9-54.5h79.6l-22.3,28.9h-57.3c-18.6,0-32.7,11.3-32.7,27.1
				c0,16.1,13.6,26.6,32.7,26.6h42v-16.1h-57.5L820.7,563.3z"/>
			
				<linearGradient id="SVGID_00000130624355491574289750000007352819006109714103_" gradientUnits="userSpaceOnUse" x1="995.3029" y1="519.8171" x2="995.3029" y2="632.7595">
				<stop  offset="0" style="stop-color:#CC1517"/>
				<stop  offset="1" style="stop-color:#E61110"/>
			</linearGradient>
			<path style="fill:url(#SVGID_00000130624355491574289750000007352819006109714103_);" d="M958.5,632.8l20.8-28.6h27.9
				c6.6,0,14.5,0,19.8,0.3c-3-4-7.6-10.8-11.3-16.1L995.7,559l-52.2,73.7h-40.7l71.3-100.5c4.7-6.5,11.5-12.5,22.3-12.5
				c10.3,0,17.1,5.5,21.9,12.5l69.4,100.5H958.5z"/>
			
				<linearGradient id="SVGID_00000158009304908041334890000015837805796856653500_" gradientUnits="userSpaceOnUse" x1="1178.6715" y1="521.6442" x2="1178.6715" y2="632.7595">
				<stop  offset="0" style="stop-color:#CC1517"/>
				<stop  offset="1" style="stop-color:#E61110"/>
			</linearGradient>
			<path style="fill:url(#SVGID_00000158009304908041334890000015837805796856653500_);" d="M1257.6,632.8h-46l-24.7-29.4h-52.8
				v29.4h-34.4V576h96.7c10.6,0,18.9-4.8,18.9-12.5c0-8.6-7.1-13-18.9-13h-96.7l22.4-28.9h71.4c25.2,0,57.1,8,57.1,39.7
				c0,17.3-10.8,31.6-29.1,35.2c3.8,2.8,8,6.8,15.6,14.6L1257.6,632.8z"/>
			
				<linearGradient id="SVGID_00000039096778790603180190000006314986390119620265_" gradientUnits="userSpaceOnUse" x1="1353.7365" y1="519.8171" x2="1353.7365" y2="632.7595">
				<stop  offset="0" style="stop-color:#CC1517"/>
				<stop  offset="1" style="stop-color:#E61110"/>
			</linearGradient>
			<path style="fill:url(#SVGID_00000039096778790603180190000006314986390119620265_);" d="M1316.9,632.8l20.8-28.6h27.9
				c6.6,0,14.5,0,19.8,0.3c-3-4-7.6-10.8-11.3-16.1l-19.9-29.4l-52.2,73.7h-40.7l71.3-100.5c4.7-6.5,11.5-12.5,22.3-12.5
				c10.3,0,17.1,5.5,21.9,12.5l69.4,100.5H1316.9z"/>
			
				<linearGradient id="SVGID_00000076581471339655404880000008016276390966983867_" gradientUnits="userSpaceOnUse" x1="1511.1115" y1="521.6442" x2="1511.1115" y2="632.7595">
				<stop  offset="0" style="stop-color:#CC1517"/>
				<stop  offset="1" style="stop-color:#E61110"/>
			</linearGradient>
			<path style="fill:url(#SVGID_00000076581471339655404880000008016276390966983867_);" d="M1509.9,563.3h71.1v69.4h-76.2
				c-38.5,0-66.9-24.4-66.9-56.6c0-32.6,28.4-54.5,66.9-54.5h79.6l-22.3,28.9h-57.3c-18.6,0-32.7,11.3-32.7,27.1
				c0,16.1,13.6,26.6,32.7,26.6h42v-16.1h-57.5L1509.9,563.3z"/>
			
				<linearGradient id="SVGID_00000013878369143095828010000009800096860225239946_" gradientUnits="userSpaceOnUse" x1="1665.3302" y1="521.6442" x2="1665.3302" y2="632.7595">
				<stop  offset="0" style="stop-color:#CC1517"/>
				<stop  offset="1" style="stop-color:#E61110"/>
			</linearGradient>
			<path style="fill:url(#SVGID_00000013878369143095828010000009800096860225239946_);" d="M1729.9,604.2l-22.1,28.6h-107V521.6
				h128.7l-22.3,28.9h-71.9v13.3h88l-19.8,25.2h-68.3v15.1H1729.9z"/>
		</g>
	</g>
	<g>
		<g>
			<g>
				<path d="M635.3,711.9l7.4-10.2h10c2.4,0,5.2,0,7.1,0.1c-1.1-1.4-2.7-3.9-4-5.8l-7.1-10.5L630,711.9h-14.5l25.4-35.9
					c1.7-2.3,4.1-4.4,7.9-4.4c3.7,0,6.1,2,7.8,4.4l24.8,35.9H635.3z"/>
				<path d="M762.3,694.6c0,12-8.2,18-24.7,18c-19.1,0-27.3-6-27.3-18v-22.4h12.2v22.4c0,5.9,2.5,7.8,15.1,7.8
					c9.4,0,12.4-2.2,12.4-7.8v-22.4h12.3V694.6z"/>
				<path d="M848.2,672.2l-7.9,10.3h-14.2v29.4h-12.3v-29.4h-18.6l7.9-10.3H848.2z"/>
				<path d="M932.7,692c0,14.2-9.7,20.5-29,20.5c-19.3,0-29-6.3-29-20.5s9.7-20.5,29-20.5C923,671.6,932.7,677.8,932.7,692z
					 M920.5,692c0-8.5-4.4-10.1-16.8-10.1s-16.8,1.6-16.8,10.1c0,8.5,4.4,10.2,16.8,10.2S920.5,700.6,920.5,692z"/>
				<path d="M1005.3,688c9.7,0,14.9,3.6,14.9,10.9c0,8.1-4.9,13-17,13h-36.9l7.9-10.2h30c2.9,0,4.2-0.8,4.2-2.9c0-2-1.3-2.8-4.2-2.8
					h-21.6c-10.2,0-14.9-4.6-14.9-11.4c0-7.5,5-12.3,17-12.3h34.5l-7.9,10.3h-27.5c-2.8,0-4.2,0.7-4.2,2.7c0,2,1.4,2.8,4.2,2.8
					H1005.3z"/>
				<path d="M1101.4,701.7l-7.9,10.2h-38.2v-39.7h46l-7.9,10.3h-25.7v4.7h31.4l-7.1,9h-24.4v5.4H1101.4z"/>
				<path d="M1191.5,711.9h-16.4l-8.8-10.5h-18.9v10.5h-12.3v-20.3h34.5c3.8,0,6.8-1.7,6.8-4.4c0-3.1-2.5-4.6-6.8-4.6h-34.5l8-10.3
					h25.5c9,0,20.4,2.8,20.4,14.2c0,6.2-3.9,11.3-10.4,12.6c1.4,1,2.8,2.4,5.6,5.2L1191.5,711.9z"/>
				<path d="M1263.8,697.1c-3.4-6.1-5-9.1-6.4-11.9c-1.2,2.8-2.8,5.8-6.3,11.9l-6.3,11.3c-1.4,2.5-3.6,4.2-6.8,4.2
					c-3.1,0-5.8-1.8-6.9-5.5l-10.1-34.9h12.3l3.7,13.8c1.2,4.4,2.1,7.7,2.7,10.9c1.3-2.8,2.8-5.8,5.6-11l5.3-10
					c2.1-3.9,4.1-4.4,7-4.4c3,0,5,0.5,7.1,4.4l5.3,10c3,5.5,4.3,8.2,5.6,10.9c0.7-3.1,1.5-6.5,2.7-10.9l3.7-13.8h12l-10.3,34.9
					c-1.1,3.7-3.8,5.5-6.9,5.5c-3.1,0-5.3-1.6-6.8-4.2L1263.8,697.1z"/>
				<path d="M1340.8,711.9h-12.3v-39.7h12.3V711.9z"/>
				<path d="M1414.9,688c9.7,0,14.9,3.6,14.9,10.9c0,8.1-4.9,13-17,13h-36.9l7.9-10.2h30c2.9,0,4.2-0.8,4.2-2.9c0-2-1.3-2.8-4.2-2.8
					h-21.6c-10.2,0-14.9-4.6-14.9-11.4c0-7.5,5-12.3,17-12.3h34.5l-7.9,10.3h-27.5c-2.8,0-4.2,0.7-4.2,2.7c0,2,1.4,2.8,4.2,2.8
					H1414.9z"/>
			</g>
			<g>
				<polygon points="1479,684.4 1731.9,692.2 1479,700.1 				"/>
			</g>
			<g>
				<polygon points="569.2,700.1 316.3,692.2 569.2,684.4 				"/>
			</g>
		</g>
		<g>
			<g>
				
					<linearGradient id="SVGID_00000011711532027797925110000004965539145629627834_" gradientUnits="userSpaceOnUse" x1="1024.121" y1="671.5605" x2="1024.121" y2="712.5342">
					<stop  offset="0" style="stop-color:#302E2F"/>
					<stop  offset="1" style="stop-color:#000000"/>
				</linearGradient>
				<path style="fill:url(#SVGID_00000011711532027797925110000004965539145629627834_);" d="M635.3,711.9l7.4-10.2h10
					c2.4,0,5.2,0,7.1,0.1c-1.1-1.4-2.7-3.9-4-5.8l-7.1-10.5L630,711.9h-14.5l25.4-35.9c1.7-2.3,4.1-4.4,7.9-4.4c3.7,0,6.1,2,7.8,4.4
					l24.8,35.9H635.3z"/>
				
					<linearGradient id="SVGID_00000043432433121615482800000000645376376552580779_" gradientUnits="userSpaceOnUse" x1="1024.121" y1="671.5605" x2="1024.121" y2="712.5342">
					<stop  offset="0" style="stop-color:#302E2F"/>
					<stop  offset="1" style="stop-color:#000000"/>
				</linearGradient>
				<path style="fill:url(#SVGID_00000043432433121615482800000000645376376552580779_);" d="M762.3,694.6c0,12-8.2,18-24.7,18
					c-19.1,0-27.3-6-27.3-18v-22.4h12.2v22.4c0,5.9,2.5,7.8,15.1,7.8c9.4,0,12.4-2.2,12.4-7.8v-22.4h12.3V694.6z"/>
				
					<linearGradient id="SVGID_00000047776808383347060260000001189500908376396929_" gradientUnits="userSpaceOnUse" x1="1024.121" y1="671.5605" x2="1024.121" y2="712.5342">
					<stop  offset="0" style="stop-color:#302E2F"/>
					<stop  offset="1" style="stop-color:#000000"/>
				</linearGradient>
				<path style="fill:url(#SVGID_00000047776808383347060260000001189500908376396929_);" d="M848.2,672.2l-7.9,10.3h-14.2v29.4
					h-12.3v-29.4h-18.6l7.9-10.3H848.2z"/>
				
					<linearGradient id="SVGID_00000007419856261539882790000004210603818617279372_" gradientUnits="userSpaceOnUse" x1="1024.121" y1="671.5605" x2="1024.121" y2="712.5342">
					<stop  offset="0" style="stop-color:#302E2F"/>
					<stop  offset="1" style="stop-color:#000000"/>
				</linearGradient>
				<path style="fill:url(#SVGID_00000007419856261539882790000004210603818617279372_);" d="M932.7,692c0,14.2-9.7,20.5-29,20.5
					c-19.3,0-29-6.3-29-20.5s9.7-20.5,29-20.5C923,671.6,932.7,677.8,932.7,692z M920.5,692c0-8.5-4.4-10.1-16.8-10.1
					s-16.8,1.6-16.8,10.1c0,8.5,4.4,10.2,16.8,10.2S920.5,700.6,920.5,692z"/>
				
					<linearGradient id="SVGID_00000173863080150554174160000015369848599042917566_" gradientUnits="userSpaceOnUse" x1="1024.121" y1="671.5605" x2="1024.121" y2="712.5342">
					<stop  offset="0" style="stop-color:#302E2F"/>
					<stop  offset="1" style="stop-color:#000000"/>
				</linearGradient>
				<path style="fill:url(#SVGID_00000173863080150554174160000015369848599042917566_);" d="M1005.3,688c9.7,0,14.9,3.6,14.9,10.9
					c0,8.1-4.9,13-17,13h-36.9l7.9-10.2h30c2.9,0,4.2-0.8,4.2-2.9c0-2-1.3-2.8-4.2-2.8h-21.6c-10.2,0-14.9-4.6-14.9-11.4
					c0-7.5,5-12.3,17-12.3h34.5l-7.9,10.3h-27.5c-2.8,0-4.2,0.7-4.2,2.7c0,2,1.4,2.8,4.2,2.8H1005.3z"/>
				
					<linearGradient id="SVGID_00000075129636795433821480000009348616544276180664_" gradientUnits="userSpaceOnUse" x1="1024.121" y1="671.5605" x2="1024.121" y2="712.5342">
					<stop  offset="0" style="stop-color:#302E2F"/>
					<stop  offset="1" style="stop-color:#000000"/>
				</linearGradient>
				<path style="fill:url(#SVGID_00000075129636795433821480000009348616544276180664_);" d="M1101.4,701.7l-7.9,10.2h-38.2v-39.7
					h46l-7.9,10.3h-25.7v4.7h31.4l-7.1,9h-24.4v5.4H1101.4z"/>
				
					<linearGradient id="SVGID_00000180346484943136790560000013284875219681663115_" gradientUnits="userSpaceOnUse" x1="1024.121" y1="671.5605" x2="1024.121" y2="712.5342">
					<stop  offset="0" style="stop-color:#302E2F"/>
					<stop  offset="1" style="stop-color:#000000"/>
				</linearGradient>
				<path style="fill:url(#SVGID_00000180346484943136790560000013284875219681663115_);" d="M1191.5,711.9h-16.4l-8.8-10.5h-18.9
					v10.5h-12.3v-20.3h34.5c3.8,0,6.8-1.7,6.8-4.4c0-3.1-2.5-4.6-6.8-4.6h-34.5l8-10.3h25.5c9,0,20.4,2.8,20.4,14.2
					c0,6.2-3.9,11.3-10.4,12.6c1.4,1,2.8,2.4,5.6,5.2L1191.5,711.9z"/>
				
					<linearGradient id="SVGID_00000181053580731313134720000000949797930587687322_" gradientUnits="userSpaceOnUse" x1="1024.121" y1="671.5605" x2="1024.121" y2="712.5342">
					<stop  offset="0" style="stop-color:#302E2F"/>
					<stop  offset="1" style="stop-color:#000000"/>
				</linearGradient>
				<path style="fill:url(#SVGID_00000181053580731313134720000000949797930587687322_);" d="M1263.8,697.1c-3.4-6.1-5-9.1-6.4-11.9
					c-1.2,2.8-2.8,5.8-6.3,11.9l-6.3,11.3c-1.4,2.5-3.6,4.2-6.8,4.2c-3.1,0-5.8-1.8-6.9-5.5l-10.1-34.9h12.3l3.7,13.8
					c1.2,4.4,2.1,7.7,2.7,10.9c1.3-2.8,2.8-5.8,5.6-11l5.3-10c2.1-3.9,4.1-4.4,7-4.4c3,0,5,0.5,7.1,4.4l5.3,10
					c3,5.5,4.3,8.2,5.6,10.9c0.7-3.1,1.5-6.5,2.7-10.9l3.7-13.8h12l-10.3,34.9c-1.1,3.7-3.8,5.5-6.9,5.5c-3.1,0-5.3-1.6-6.8-4.2
					L1263.8,697.1z"/>
				
					<linearGradient id="SVGID_00000067224836874064483800000015611518514830469513_" gradientUnits="userSpaceOnUse" x1="1024.121" y1="671.5605" x2="1024.121" y2="712.5342">
					<stop  offset="0" style="stop-color:#302E2F"/>
					<stop  offset="1" style="stop-color:#000000"/>
				</linearGradient>
				<path style="fill:url(#SVGID_00000067224836874064483800000015611518514830469513_);" d="M1340.8,711.9h-12.3v-39.7h12.3V711.9z
					"/>
				
					<linearGradient id="SVGID_00000009549263247312413930000009322683308902608263_" gradientUnits="userSpaceOnUse" x1="1024.121" y1="671.5605" x2="1024.121" y2="712.5342">
					<stop  offset="0" style="stop-color:#302E2F"/>
					<stop  offset="1" style="stop-color:#000000"/>
				</linearGradient>
				<path style="fill:url(#SVGID_00000009549263247312413930000009322683308902608263_);" d="M1414.9,688c9.7,0,14.9,3.6,14.9,10.9
					c0,8.1-4.9,13-17,13h-36.9l7.9-10.2h30c2.9,0,4.2-0.8,4.2-2.9c0-2-1.3-2.8-4.2-2.8h-21.6c-10.2,0-14.9-4.6-14.9-11.4
					c0-7.5,5-12.3,17-12.3h34.5l-7.9,10.3h-27.5c-2.8,0-4.2,0.7-4.2,2.7c0,2,1.4,2.8,4.2,2.8H1414.9z"/>
			</g>
			<g>
				
					<linearGradient id="SVGID_00000132081710732251211480000010429857450690933143_" gradientUnits="userSpaceOnUse" x1="1024.121" y1="671.5605" x2="1024.121" y2="712.5342">
					<stop  offset="0" style="stop-color:#302E2F"/>
					<stop  offset="1" style="stop-color:#000000"/>
				</linearGradient>
				<polygon style="fill:url(#SVGID_00000132081710732251211480000010429857450690933143_);" points="1479,684.4 1731.9,692.2 
					1479,700.1 				"/>
			</g>
			<g>
				
					<linearGradient id="SVGID_00000044895157968130635860000007426441926872395420_" gradientUnits="userSpaceOnUse" x1="1024.121" y1="671.5605" x2="1024.121" y2="712.5342">
					<stop  offset="0" style="stop-color:#302E2F"/>
					<stop  offset="1" style="stop-color:#000000"/>
				</linearGradient>
				<polygon style="fill:url(#SVGID_00000044895157968130635860000007426441926872395420_);" points="569.2,700.1 316.3,692.2 
					569.2,684.4 				"/>
			</g>
		</g>
	</g>
</g>
<g>
	<path class="st26" d="M1231.2,400.6c0,0,21.9,54.5-91.9,54.5l9.8-25.9"/>
	<path class="st26" d="M819.4,400.6c0,0-21.9,54.5,91.9,54.5l-9.8-25.9"/>
	<g>
		<g>
			<g>
				<path d="M1092.6,426.5v44.7c0.2-0.2,0.4-0.3,0,0.1v0.2c16.7-9.1,26.8-43.7,26.8-43.7C1116.8,427.1,1106.1,426.7,1092.6,426.5z"
					/>
				<path d="M1041.4,426.1v47.4c5.9-0.1,11.8-0.2,17.7-0.4v-47C1052.7,426.1,1046.7,426.1,1041.4,426.1z"/>
				<path d="M1067,426.2v46.7c5.9-0.2,11.8-0.5,17.7-0.8v-45.7C1079,426.3,1073,426.2,1067,426.2z"/>
				<path d="M990.1,426.1v47c5.9,0.2,11.8,0.3,17.7,0.4v-47.4C1002.5,426.1,996.4,426.1,990.1,426.1z"/>
				<path d="M1024.9,426.1c-2.1,0-5.3,0-9.2,0v47.5c3,0,6,0,9.1,0.1v0c0.1,0,0.1,0,0.2,0c0.1,0,0.1,0,0.2,0v0c2.8,0,5.6,0,8.3,0
					v-47.5C1029.8,426.1,1026.9,426.1,1024.9,426.1z"/>
				<path d="M964.4,426.4V472c5.9,0.3,11.8,0.6,17.7,0.8v-46.6C976.2,426.2,970.2,426.3,964.4,426.4z"/>
				<path d="M930.4,427.7c0,0,9.8,33.7,26.1,43.3v-44.5C943.4,426.7,933,427.1,930.4,427.7z"/>
			</g>
			<g>
				<path d="M1189.9,382.4c0,0-18.1-61.8-47.8-76.8c0,0.1,0,0,0,0c-39-2.2-77.9-3.3-116.9-3.4v0c-0.1,0-0.2,0-0.3,0
					c-0.1,0-0.2,0-0.3,0v0c-39,0.1-78,1.2-116.9,3.4c0,0,0,0,0,0c-29.7,15-47.8,76.8-47.8,76.8c13.1,3,138.8,2.9,165,2.8
					C1051.1,385.3,1176.8,385.4,1189.9,382.4z"/>
				<g>
					<path d="M1277.9,357.3l-4.7-13.5c-1.9-5.5-7.9-8.4-13.4-6.5l-29.6,10.3c-5.5,1.9-11.8,7.3-14.1,12c-0.6,1.3-1.2,2.5-1.8,3.6
						c-6.4-17.9-19.5-48.5-38.7-67.2l2.5-1.4l16.5-9l-38.9-2.2c-39.4-2.2-79.5-3.5-119.4-3.8v-0.1l-12.3,0v11.1c0.2,0,0.4,0,0.6,0v0
						c0.1,0,0.2,0,0.3,0c0.1,0,0.2,0,0.3,0v0c43.3,0.1,86.5,1.3,129.8,3.8c0,0,0,0,0,0c33,16.6,53.1,85.3,53.1,85.3l0.4,1.6
						c4.2-0.2,7.7-0.4,10.5-0.7c0.6,0.4,1.3,0.7,2.1,1.1c8.7,4.7,25.7-2.6,25.7-2.6l0,0l-0.1,0l24.6-8.6
						C1277,368.8,1279.9,362.8,1277.9,357.3z"/>
					<path d="M770.3,357.3l4.7-13.5c1.9-5.5,7.9-8.4,13.4-6.5l29.6,10.3c5.5,1.9,11.8,7.3,14.1,12c0.6,1.3,1.2,2.5,1.8,3.6
						c6.4-17.9,19.5-48.5,38.7-67.2l-2.5-1.4l-16.5-9l38.9-2.2c39.4-2.2,79.5-3.5,119.4-3.8v-0.1l12.3,0v11.1c-0.2,0-0.4,0-0.6,0v0
						c-0.1,0-0.2,0-0.3,0c-0.1,0-0.2,0-0.3,0v0c-43.3,0.1-86.5,1.3-129.8,3.8c0,0,0,0,0,0c-33,16.6-53.1,85.3-53.1,85.3l-0.4,1.6
						c-4.2-0.2-7.7-0.4-10.5-0.7c-0.6,0.4-1.3,0.7-2.1,1.1c-8.7,4.7-25.7-2.6-25.7-2.6l0,0l0.1,0l-24.6-8.6
						C771.3,368.8,768.4,362.8,770.3,357.3z"/>
				</g>
			</g>
		</g>
		<g>
			<g>
				<path class="st27" d="M1092.6,426.5v44.7c0.2-0.2,0.4-0.3,0,0.1v0.2c16.7-9.1,26.8-43.7,26.8-43.7
					C1116.8,427.1,1106.1,426.7,1092.6,426.5z"/>
				<path class="st27" d="M1041.4,426.1v47.4c5.9-0.1,11.8-0.2,17.7-0.4v-47C1052.7,426.1,1046.7,426.1,1041.4,426.1z"/>
				<path class="st27" d="M1067,426.2v46.7c5.9-0.2,11.8-0.5,17.7-0.8v-45.7C1079,426.3,1073,426.2,1067,426.2z"/>
				<path class="st27" d="M990.1,426.1v47c5.9,0.2,11.8,0.3,17.7,0.4v-47.4C1002.5,426.1,996.4,426.1,990.1,426.1z"/>
				<path class="st27" d="M1024.9,426.1c-2.1,0-5.3,0-9.2,0v47.5c3,0,6,0,9.1,0.1v0c0.1,0,0.1,0,0.2,0c0.1,0,0.1,0,0.2,0v0
					c2.8,0,5.6,0,8.3,0v-47.5C1029.8,426.1,1026.9,426.1,1024.9,426.1z"/>
				<path class="st27" d="M964.4,426.4V472c5.9,0.3,11.8,0.6,17.7,0.8v-46.6C976.2,426.2,970.2,426.3,964.4,426.4z"/>
				<path class="st27" d="M930.4,427.7c0,0,9.8,33.7,26.1,43.3v-44.5C943.4,426.7,933,427.1,930.4,427.7z"/>
			</g>
			<g>
				<path class="st27" d="M1189.9,382.4c0,0-18.1-61.8-47.8-76.8c0,0.1,0,0,0,0c-39-2.2-77.9-3.3-116.9-3.4v0c-0.1,0-0.2,0-0.3,0
					c-0.1,0-0.2,0-0.3,0v0c-39,0.1-78,1.2-116.9,3.4c0,0,0,0,0,0c-29.7,15-47.8,76.8-47.8,76.8c13.1,3,138.8,2.9,165,2.8
					C1051.1,385.3,1176.8,385.4,1189.9,382.4z"/>
				<g>
					<path class="st27" d="M1277.9,357.3l-4.7-13.5c-1.9-5.5-7.9-8.4-13.4-6.5l-29.6,10.3c-5.5,1.9-11.8,7.3-14.1,12
						c-0.6,1.3-1.2,2.5-1.8,3.6c-6.4-17.9-19.5-48.5-38.7-67.2l2.5-1.4l16.5-9l-38.9-2.2c-39.4-2.2-79.5-3.5-119.4-3.8v-0.1l-12.3,0
						v11.1c0.2,0,0.4,0,0.6,0v0c0.1,0,0.2,0,0.3,0c0.1,0,0.2,0,0.3,0v0c43.3,0.1,86.5,1.3,129.8,3.8c0,0,0,0,0,0
						c33,16.6,53.1,85.3,53.1,85.3l0.4,1.6c4.2-0.2,7.7-0.4,10.5-0.7c0.6,0.4,1.3,0.7,2.1,1.1c8.7,4.7,25.7-2.6,25.7-2.6l0,0l-0.1,0
						l24.6-8.6C1277,368.8,1279.9,362.8,1277.9,357.3z"/>
					<path class="st27" d="M770.3,357.3l4.7-13.5c1.9-5.5,7.9-8.4,13.4-6.5l29.6,10.3c5.5,1.9,11.8,7.3,14.1,12
						c0.6,1.3,1.2,2.5,1.8,3.6c6.4-17.9,19.5-48.5,38.7-67.2l-2.5-1.4l-16.5-9l38.9-2.2c39.4-2.2,79.5-3.5,119.4-3.8v-0.1l12.3,0
						v11.1c-0.2,0-0.4,0-0.6,0v0c-0.1,0-0.2,0-0.3,0c-0.1,0-0.2,0-0.3,0v0c-43.3,0.1-86.5,1.3-129.8,3.8c0,0,0,0,0,0
						c-33,16.6-53.1,85.3-53.1,85.3l-0.4,1.6c-4.2-0.2-7.7-0.4-10.5-0.7c-0.6,0.4-1.3,0.7-2.1,1.1c-8.7,4.7-25.7-2.6-25.7-2.6l0,0
						l0.1,0l-24.6-8.6C771.3,368.8,768.4,362.8,770.3,357.3z"/>
				</g>
			</g>
		</g>
	</g>
</g>
</svg>
